<svg id="Layer_1" data-name="Layer 1" xmlns="http://www.w3.org/2000/svg" viewBox="0 0 24 24" strokeWidth="1.5" width="24" height="24" color="#f01a1a"><defs><style>.cls-637642e7c3a86d32eae6f1bd-1{fill:none;stroke:currentColor;stroke-miterlimit:10;}</style></defs><path class="cls-637642e7c3a86d32eae6f1bd-1" d="M18.68,1.48H5.32A3.82,3.82,0,0,0,1.5,5.3v9.54a3.82,3.82,0,0,0,3.82,3.82H9.14L12,21.52l2.86-2.86h3.82a3.82,3.82,0,0,0,3.82-3.82V5.3A3.82,3.82,0,0,0,18.68,1.48Z"></path><path class="cls-637642e7c3a86d32eae6f1bd-1" d="M12,12V10.86a1.9,1.9,0,0,1,.56-1.35l.79-.79a1.92,1.92,0,0,0,.56-1.35V7.2A1.91,1.91,0,0,0,12,5.3h0a1.91,1.91,0,0,0-1.91,1.9"></path><line class="cls-637642e7c3a86d32eae6f1bd-1" x1="11.05" y1="13.89" x2="12.95" y2="13.89"></line></svg>